# xmcd
#
# Track frame offsets: 
#        150
#        10775
#        23188
#        35400
#        46163
#        60075
#        72038
#        83875
#        95430
#        108013
#
# Disc length: 1582 seconds
#
# Revision: 0
# Processed by: cddbd v1.5.1PL0 Copyright (c) Steve Scherf et al.
# Submitted via: ExactAudioCopy v0.95a5
#
DISCID=67062c0a
DTITLE=Billy Walker - Billy Walker's Best
DYEAR=1989
DGENRE=Classic Country
TTITLE0=The Old French Quarter
TTITLE1=Walker's Woods
TTITLE2=A Million And One
TTITLE3=Things
TTITLE4=Anything Your Heart Desires
TTITLE5=Bear With Me A Little Longer
TTITLE6=Make The World Go Away
TTITLE7=Lonely Street
TTITLE8=Sundown Mary
TTITLE9=Wings Of A Dove
EXTD=
EXTT0=
EXTT1=
EXTT2=
EXTT3=
EXTT4=
EXTT5=
EXTT6=
EXTT7=
EXTT8=
EXTT9=
PLAYORDER=
